<svg width="512" height="512" viewBox="0 0 512 512" fill="none" xmlns="http://www.w3.org/2000/svg" role="img" aria-labelledby="title desc">
  <title id="title">STEP_3D invader</title>
  <desc id="desc">Simple animated pixel invader logo for STEP_3D on transparent background</desc>
  <style>
    .body { fill:#171615; }
    .eye { fill:#f7f4ee; animation: blink 3.6s steps(1) infinite; }
    .accent { fill:#22d3ee; animation: glow 2.4s ease-in-out infinite; }
    .spark { fill:#ff6b3d; animation: glow 2.4s ease-in-out infinite reverse; }
    .float { animation: float 4.6s ease-in-out infinite; transform-origin:256px 256px; }
    @keyframes float { 0%,100%{ transform:translateY(0); } 50%{ transform:translateY(-10px); } }
    @keyframes blink { 0%,88%,100%{ opacity:1; } 90%,94%{ opacity:.12; } }
    @keyframes glow { 0%,100%{ opacity:.72; } 50%{ opacity:1; } }
    @media (prefers-reduced-motion: reduce) { * { animation:none!important; } }
  </style>

  <g class="float">
    <!-- antenna -->
    <rect class="spark" x="236" y="52" width="40" height="40" rx="8"/>
    <rect class="body" x="244" y="96" width="24" height="32" rx="6"/>

    <!-- visor -->
    <rect class="accent" x="176" y="132" width="160" height="24" rx="6"/>

    <!-- pixel body -->
    <rect class="body" x="128" y="168" width="64" height="48" rx="8"/>
    <rect class="body" x="208" y="168" width="96" height="48" rx="8"/>
    <rect class="body" x="320" y="168" width="64" height="48" rx="8"/>

    <rect class="body" x="96" y="216" width="320" height="64" rx="10"/>
    <rect class="body" x="64" y="280" width="384" height="56" rx="10"/>
    <rect class="body" x="112" y="336" width="288" height="48" rx="10"/>

    <!-- eyes -->
    <rect class="eye" x="160" y="236" width="56" height="44" rx="6"/>
    <rect class="eye" x="296" y="236" width="56" height="44" rx="6"/>

    <!-- mouth pixels -->
    <rect class="eye" x="184" y="320" width="32" height="24" rx="5" opacity=".9"/>
    <rect class="eye" x="240" y="320" width="32" height="24" rx="5" opacity=".9"/>
    <rect class="eye" x="296" y="320" width="32" height="24" rx="5" opacity=".9"/>

    <!-- arms -->
    <rect class="body" x="48" y="248" width="48" height="64" rx="9"/>
    <rect class="body" x="416" y="248" width="48" height="64" rx="9"/>

    <!-- legs -->
    <rect class="body" x="128" y="384" width="48" height="64" rx="9"/>
    <rect class="body" x="232" y="384" width="48" height="64" rx="9"/>
    <rect class="body" x="336" y="384" width="48" height="64" rx="9"/>
  </g>
</svg>
